<?xml version="1.0" encoding="UTF-8"?>
<svg xmlns="http://www.w3.org/2000/svg" version="1.1" viewBox="0 0 125.7 29">
  <defs>
    <style>
      .cls-1 {
        isolation: isolate;
      }

      .cls-2 {
        fill: #fff;
      }

      .cls-3 {
        fill: none;
        stroke: #fff;
        stroke-miterlimit: 10;
        stroke-width: 2px;
      }
    </style>
  </defs>
  <!-- Generator: Adobe Illustrator 28.7.1, SVG Export Plug-In . SVG Version: 1.2.0 Build 142)  -->
  <g>
    <g id="Layer_2">
      <polyline class="cls-3" points="1 8 1 1 8 1"/>
      <polyline class="cls-3" points="124.7 21 124.7 28 117.7 28"/>
      <polyline class="cls-3" points="117.7 1 124.7 1 124.7 8"/>
      <polyline class="cls-3" points="8.1 28 1.2 28 1.2 21"/>
      <g class="cls-1">
        <path class="cls-2" d="M15.9,15.4v7.3h-2.4V5.3h4.9c1.1,0,2.1.1,2.9.3.8.2,1.5.5,2,1,.5.4.9.9,1.2,1.5.3.6.4,1.3.4,2s0,1.2-.3,1.7c-.2.5-.5,1-.8,1.4s-.8.8-1.4,1.1c-.5.3-1.1.5-1.8.7.3.2.6.4.8.7l5.1,6.9h-2.1c-.4,0-.7-.2-1-.5l-4.5-6.2c-.1-.2-.3-.3-.5-.4-.2,0-.4-.1-.7-.1h-1.8ZM15.9,13.7h2.5c.7,0,1.3,0,1.8-.2.5-.2,1-.4,1.3-.7.4-.3.6-.7.8-1.1.2-.4.3-.9.3-1.4,0-1-.3-1.8-1-2.4-.7-.5-1.7-.8-3.1-.8h-2.6v6.6Z"/>
        <path class="cls-2" d="M33.6,10.2c.7,0,1.4.1,2,.4s1.2.6,1.6,1.1c.5.5.8,1,1.1,1.7.3.7.4,1.5.4,2.3s0,.6-.1.7c0,.1-.2.2-.4.2h-8.2c0,.8.1,1.5.3,2,.2.6.5,1.1.8,1.4.3.4.7.7,1.2.9.5.2,1,.3,1.6.3s1,0,1.4-.2c.4-.1.7-.3,1-.4s.5-.3.7-.4.4-.2.5-.2.3,0,.4.2l.6.8c-.3.3-.6.6-1,.8-.4.2-.8.4-1.2.6-.4.2-.9.3-1.3.3-.5,0-.9.1-1.4.1-.9,0-1.6-.1-2.4-.4-.7-.3-1.3-.7-1.9-1.3s-.9-1.2-1.2-2.1c-.3-.8-.4-1.8-.4-2.8s.1-1.7.4-2.4c.3-.7.6-1.4,1.1-1.9.5-.5,1.1-1,1.8-1.3.7-.3,1.5-.5,2.4-.5ZM33.6,11.8c-1,0-1.9.3-2.5.9-.6.6-1,1.4-1.1,2.5h6.7c0-.5,0-1-.2-1.4-.1-.4-.3-.8-.6-1.1-.3-.3-.6-.5-1-.7-.4-.2-.8-.2-1.3-.2Z"/>
        <path class="cls-2" d="M46.4,10.2c.7,0,1.4.1,2,.4s1.2.6,1.6,1.1c.5.5.8,1,1.1,1.7.3.7.4,1.5.4,2.3s0,.6-.1.7c0,.1-.2.2-.4.2h-8.2c0,.8.1,1.5.3,2,.2.6.5,1.1.8,1.4.3.4.7.7,1.2.9.5.2,1,.3,1.6.3s1,0,1.4-.2c.4-.1.7-.3,1-.4s.5-.3.7-.4.4-.2.5-.2.3,0,.4.2l.6.8c-.3.3-.6.6-1,.8-.4.2-.8.4-1.2.6-.4.2-.9.3-1.3.3-.5,0-.9.1-1.4.1-.9,0-1.6-.1-2.4-.4-.7-.3-1.3-.7-1.9-1.3s-.9-1.2-1.2-2.1c-.3-.8-.4-1.8-.4-2.8s.1-1.7.4-2.4c.3-.7.6-1.4,1.1-1.9.5-.5,1.1-1,1.8-1.3.7-.3,1.5-.5,2.4-.5ZM46.4,11.8c-1,0-1.9.3-2.5.9-.6.6-1,1.4-1.1,2.5h6.7c0-.5,0-1-.2-1.4-.1-.4-.3-.8-.6-1.1-.3-.3-.6-.5-1-.7-.4-.2-.8-.2-1.3-.2Z"/>
        <path class="cls-2" d="M56.7,4.8v18h-2.2V4.8h2.2Z"/>
        <path class="cls-2" d="M73.2,19.1c.1,0,.2,0,.4.2l.9,1c-.7.8-1.6,1.5-2.6,1.9-1,.5-2.2.7-3.7.7s-2.4-.2-3.4-.7c-1-.4-1.9-1-2.6-1.8-.7-.8-1.3-1.7-1.7-2.8-.4-1.1-.6-2.3-.6-3.6s.2-2.5.6-3.6,1-2,1.8-2.8c.8-.8,1.7-1.4,2.8-1.8,1.1-.4,2.3-.7,3.6-.7s2.4.2,3.3.6,1.8.9,2.5,1.6l-.8,1.1c0,0-.1.1-.2.2s-.2,0-.3,0-.2,0-.3-.1c-.1,0-.3-.2-.4-.3-.2-.1-.4-.2-.6-.4s-.5-.3-.8-.4c-.3-.1-.7-.2-1-.3s-.9-.1-1.4-.1c-.9,0-1.8.2-2.6.5s-1.4.8-2,1.4c-.6.6-1,1.3-1.3,2.2s-.5,1.8-.5,2.9.2,2.1.5,2.9c.3.9.7,1.6,1.3,2.2.5.6,1.2,1,1.9,1.3.7.3,1.5.5,2.4.5s1,0,1.4,0c.4,0,.8-.2,1.2-.3.4-.1.7-.3,1-.5.3-.2.6-.4.9-.7.1-.1.3-.2.4-.2Z"/>
      </g>
      <g class="cls-1">
        <path class="cls-2" d="M77.2,22.7v-12.4h1.2c.2,0,.4,0,.5.1,0,0,.2.2.2.5v1.9c.6-.9,1.1-1.5,1.7-2,.6-.5,1.4-.7,2.2-.7s.7,0,.9.1.5.2.8.3l-.3,1.6c0,.2-.2.3-.4.3s-.3,0-.5-.1c-.2,0-.6-.1-1-.1-.8,0-1.4.2-1.9.7-.5.4-.9,1.1-1.3,1.9v7.9h-2.2Z"/>
      </g>
      <g class="cls-1">
        <path class="cls-2" d="M95.6,22.7h-1c-.2,0-.4,0-.5,0-.1,0-.2-.2-.3-.4l-.2-1.1c-.3.3-.6.6-1,.8-.3.2-.6.4-1,.6-.3.2-.7.3-1.1.4s-.8.1-1.3.1-.9,0-1.3-.2c-.4-.1-.8-.3-1.1-.6s-.6-.6-.7-1c-.2-.4-.3-.9-.3-1.5s.1-1,.4-1.4c.3-.5.7-.9,1.3-1.2.6-.4,1.4-.6,2.3-.9,1-.2,2.1-.3,3.5-.3v-1c0-1-.2-1.7-.6-2.2-.4-.5-1-.7-1.8-.7s-1,0-1.3.2c-.4.1-.7.3-.9.5-.3.2-.5.3-.7.5-.2.1-.4.2-.6.2s-.3,0-.4-.1c-.1,0-.2-.2-.3-.3l-.4-.7c.7-.7,1.4-1.2,2.2-1.5.8-.3,1.7-.5,2.6-.5s1.3.1,1.8.3c.5.2,1,.5,1.4,1,.4.4.6.9.8,1.5.2.6.3,1.2.3,1.9v7.9ZM90,21.4c.4,0,.7,0,1-.1.3,0,.6-.2.9-.3s.5-.3.8-.5c.3-.2.5-.4.8-.7v-2.5c-1,0-1.8,0-2.5.2-.7.1-1.3.3-1.7.5-.4.2-.8.4-1,.7s-.3.6-.3.9,0,.6.2.8c.1.2.2.4.4.6s.4.3.6.3.5.1.8.1Z"/>
        <path class="cls-2" d="M99.4,22.7v-10.5l-1.4-.2c-.2,0-.3-.1-.4-.2-.1,0-.2-.2-.2-.4v-.9h2v-1.2c0-.7,0-1.3.3-1.9s.5-1,.9-1.4c.4-.4.8-.7,1.3-.9.5-.2,1.1-.3,1.8-.3s1.1,0,1.5.2v1.1c0,.2-.1.3-.3.3s-.3,0-.5,0h-.4c-.4,0-.7,0-1,.1-.3,0-.6.3-.8.5-.2.2-.4.5-.5.9-.1.4-.2.8-.2,1.3v1.1h3.6v1.6h-3.5v10.5h-2.2Z"/>
        <path class="cls-2" d="M110.9,22.9c-1,0-1.7-.3-2.2-.8s-.8-1.3-.8-2.4v-7.6h-1.5c-.1,0-.2,0-.3-.1s-.1-.2-.1-.4v-.9l2-.3.5-3.8c0-.1,0-.2.2-.3s.2-.1.3-.1h1.1v4.3h3.5v1.6h-3.5v7.4c0,.5.1.9.4,1.2.3.3.6.4,1,.4s.4,0,.6,0c.2,0,.3-.1.4-.2s.2-.1.3-.2c0,0,.2,0,.2,0,.1,0,.2,0,.3.2l.6,1c-.4.3-.8.6-1.4.8-.5.2-1.1.3-1.6.3Z"/>
      </g>
    </g>
  </g>
</svg>